<svg xmlns="http://www.w3.org/2000/svg" xmlns:xlink="http://www.w3.org/1999/xlink" width="500" zoomAndPan="magnify" viewBox="0 0 375 374.999991" height="500" preserveAspectRatio="xMidYMid meet" version="1.0"><defs><g/></defs><g fill="#ffffff" fill-opacity="1"><g transform="translate(16.883889, 177.132961)"><g><path d="M 4.640625 -63.78125 L 23.109375 -63.78125 C 31.984375 -63.78125 39.5625 -60.75 45.84375 -54.6875 C 52.132812 -48.632812 55.28125 -41.050781 55.28125 -31.9375 C 55.28125 -22.757812 52.144531 -15.140625 45.875 -9.078125 C 39.613281 -3.023438 32.023438 0 23.109375 0 L 4.640625 0 Z M 19.171875 -12.984375 L 21.421875 -12.984375 C 26.722656 -12.984375 31.0625 -14.773438 34.4375 -18.359375 C 37.8125 -21.941406 39.523438 -26.441406 39.578125 -31.859375 C 39.578125 -37.265625 37.890625 -41.769531 34.515625 -45.375 C 31.140625 -48.988281 26.773438 -50.796875 21.421875 -50.796875 L 19.171875 -50.796875 Z M 19.171875 -12.984375 "/></g></g></g><g fill="#ffffff" fill-opacity="1"><g transform="translate(73.936594, 177.132961)"><g><path d="M 37.03125 -63.78125 L 62.78125 0 L 47.15625 0 L 42.4375 -12.75 L 18.171875 -12.75 L 13.453125 0 L -2.171875 0 L 23.578125 -63.78125 Z M 37.5 -25.515625 L 30.390625 -44.0625 L 30.234375 -44.0625 L 23.109375 -25.515625 Z M 37.5 -25.515625 "/></g></g></g><g fill="#ffffff" fill-opacity="1"><g transform="translate(134.545426, 177.132961)"><g><path d="M 19.171875 -39.578125 L 19.171875 0 L 4.640625 0 L 4.640625 -63.78125 L 19.171875 -63.78125 L 44.53125 -24.203125 L 44.6875 -24.203125 L 44.6875 -63.78125 L 59.21875 -63.78125 L 59.21875 0 L 44.6875 0 L 19.328125 -39.578125 Z M 19.171875 -39.578125 "/></g></g></g><g fill="#ffffff" fill-opacity="1"><g transform="translate(198.401168, 177.132961)"><g><path d="M 19.171875 -63.78125 L 19.171875 0 L 4.640625 0 L 4.640625 -63.78125 Z M 19.171875 -63.78125 "/></g></g></g><g fill="#ffffff" fill-opacity="1"><g transform="translate(16.883889, 240.306972)"><g><path d="M 38.578125 -13.140625 C 40.796875 -13.140625 42.945312 -13.472656 45.03125 -14.140625 C 47.125 -14.816406 48.660156 -15.460938 49.640625 -16.078125 L 51.109375 -17.09375 L 57.28125 -4.71875 C 57.082031 -4.5625 56.800781 -4.351562 56.4375 -4.09375 C 56.070312 -3.84375 55.234375 -3.367188 53.921875 -2.671875 C 52.609375 -1.972656 51.203125 -1.363281 49.703125 -0.84375 C 48.210938 -0.332031 46.253906 0.125 43.828125 0.53125 C 41.410156 0.945312 38.914062 1.15625 36.34375 1.15625 C 30.414062 1.15625 24.796875 -0.296875 19.484375 -3.203125 C 14.171875 -6.117188 9.890625 -10.128906 6.640625 -15.234375 C 3.398438 -20.335938 1.78125 -25.851562 1.78125 -31.78125 C 1.78125 -36.257812 2.734375 -40.5625 4.640625 -44.6875 C 6.546875 -48.8125 9.082031 -52.34375 12.25 -55.28125 C 15.425781 -58.21875 19.125 -60.5625 23.34375 -62.3125 C 27.570312 -64.0625 31.90625 -64.9375 36.34375 -64.9375 C 40.457031 -64.9375 44.253906 -64.445312 47.734375 -63.46875 C 51.210938 -62.488281 53.675781 -61.507812 55.125 -60.53125 L 57.28125 -59.0625 L 51.109375 -46.703125 C 50.742188 -47.003906 50.195312 -47.375 49.46875 -47.8125 C 48.75 -48.25 47.304688 -48.828125 45.140625 -49.546875 C 42.984375 -50.273438 40.796875 -50.640625 38.578125 -50.640625 C 35.078125 -50.640625 31.929688 -50.070312 29.140625 -48.9375 C 26.359375 -47.800781 24.15625 -46.304688 22.53125 -44.453125 C 20.90625 -42.597656 19.664062 -40.597656 18.8125 -38.453125 C 17.96875 -36.316406 17.546875 -34.144531 17.546875 -31.9375 C 17.546875 -27.082031 19.363281 -22.734375 23 -18.890625 C 26.632812 -15.054688 31.828125 -13.140625 38.578125 -13.140625 Z M 38.578125 -13.140625 "/></g></g></g><g fill="#ffffff" fill-opacity="1"><g transform="translate(75.0962, 240.306972)"><g><path d="M 37.03125 -63.78125 L 62.78125 0 L 47.15625 0 L 42.4375 -12.75 L 18.171875 -12.75 L 13.453125 0 L -2.171875 0 L 23.578125 -63.78125 Z M 37.5 -25.515625 L 30.390625 -44.0625 L 30.234375 -44.0625 L 23.109375 -25.515625 Z M 37.5 -25.515625 "/></g></g></g><g fill="#ffffff" fill-opacity="1"><g transform="translate(135.705041, 240.306972)"><g><path d="M 28.140625 -64.9375 C 31.597656 -64.9375 34.972656 -64.429688 38.265625 -63.421875 C 41.566406 -62.421875 44.015625 -61.429688 45.609375 -60.453125 L 47.9375 -58.90625 L 42.0625 -47.3125 C 41.59375 -47.625 40.945312 -48.023438 40.125 -48.515625 C 39.300781 -49.003906 37.753906 -49.660156 35.484375 -50.484375 C 33.210938 -51.304688 31.097656 -51.71875 29.140625 -51.71875 C 26.722656 -51.71875 24.851562 -51.203125 23.53125 -50.171875 C 22.21875 -49.140625 21.5625 -47.75 21.5625 -46 C 21.5625 -45.125 21.867188 -44.3125 22.484375 -43.5625 C 23.109375 -42.8125 24.164062 -42.007812 25.65625 -41.15625 C 27.15625 -40.3125 28.472656 -39.628906 29.609375 -39.109375 C 30.742188 -38.597656 32.5 -37.828125 34.875 -36.796875 C 38.988281 -35.046875 42.503906 -32.660156 45.421875 -29.640625 C 48.335938 -26.628906 49.796875 -23.21875 49.796875 -19.40625 C 49.796875 -15.75 49.132812 -12.550781 47.8125 -9.8125 C 46.5 -7.082031 44.695312 -4.941406 42.40625 -3.390625 C 40.113281 -1.847656 37.570312 -0.707031 34.78125 0.03125 C 32 0.78125 28.988281 1.15625 25.75 1.15625 C 22.957031 1.15625 20.222656 0.867188 17.546875 0.296875 C 14.867188 -0.265625 12.628906 -0.96875 10.828125 -1.8125 C 9.023438 -2.664062 7.398438 -3.503906 5.953125 -4.328125 C 4.503906 -5.148438 3.445312 -5.847656 2.78125 -6.421875 L 1.78125 -7.265625 L 9.046875 -19.484375 C 9.660156 -18.960938 10.507812 -18.300781 11.59375 -17.5 C 12.675781 -16.707031 14.597656 -15.640625 17.359375 -14.296875 C 20.117188 -12.960938 22.550781 -12.296875 24.65625 -12.296875 C 30.789062 -12.296875 33.859375 -14.382812 33.859375 -18.5625 C 33.859375 -19.4375 33.640625 -20.242188 33.203125 -20.984375 C 32.765625 -21.734375 31.988281 -22.484375 30.875 -23.234375 C 29.769531 -23.984375 28.789062 -24.578125 27.9375 -25.015625 C 27.09375 -25.453125 25.703125 -26.117188 23.765625 -27.015625 C 21.835938 -27.921875 20.410156 -28.601562 19.484375 -29.0625 C 15.617188 -30.976562 12.628906 -33.363281 10.515625 -36.21875 C 8.398438 -39.082031 7.34375 -42.160156 7.34375 -45.453125 C 7.34375 -51.179688 9.457031 -55.859375 13.6875 -59.484375 C 17.914062 -63.117188 22.734375 -64.9375 28.140625 -64.9375 Z M 28.140625 -64.9375 "/></g></g></g><g fill="#ffffff" fill-opacity="1"><g transform="translate(187.655466, 240.306972)"><g><path d="M 0.625 -51.03125 L 0.625 -63.78125 L 45.453125 -63.78125 L 45.453125 -51.03125 L 30.3125 -51.03125 L 30.3125 0 L 15.765625 0 L 15.765625 -51.03125 Z M 0.625 -51.03125 "/></g></g></g><g fill="#ffffff" fill-opacity="1"><g transform="translate(233.730546, 240.306972)"><g><path d="M 4.640625 -63.78125 L 27.453125 -63.78125 C 33.578125 -63.78125 38.570312 -62.144531 42.4375 -58.875 C 46.3125 -55.601562 48.25 -50.925781 48.25 -44.84375 C 48.25 -40.15625 47.070312 -36.222656 44.71875 -33.046875 C 42.375 -29.878906 39.191406 -27.648438 35.171875 -26.359375 L 57.140625 0 L 38.65625 0 L 19.171875 -25.203125 L 19.171875 0 L 4.640625 0 Z M 19.171875 -35.484375 L 20.875 -35.484375 C 22.21875 -35.484375 23.351562 -35.507812 24.28125 -35.5625 C 25.207031 -35.613281 26.257812 -35.789062 27.4375 -36.09375 C 28.625 -36.40625 29.578125 -36.84375 30.296875 -37.40625 C 31.023438 -37.976562 31.644531 -38.804688 32.15625 -39.890625 C 32.675781 -40.972656 32.9375 -42.285156 32.9375 -43.828125 C 32.9375 -45.378906 32.675781 -46.695312 32.15625 -47.78125 C 31.644531 -48.863281 31.023438 -49.6875 30.296875 -50.25 C 29.578125 -50.820312 28.625 -51.257812 27.4375 -51.5625 C 26.257812 -51.875 25.207031 -52.054688 24.28125 -52.109375 C 23.351562 -52.160156 22.21875 -52.1875 20.875 -52.1875 L 19.171875 -52.1875 Z M 19.171875 -35.484375 "/></g></g></g><g fill="#ffffff" fill-opacity="1"><g transform="translate(289.08249, 240.306972)"><g><path d="M 1.78125 -31.9375 C 1.78125 -41.15625 4.921875 -48.957031 11.203125 -55.34375 C 17.492188 -61.738281 25.070312 -64.9375 33.9375 -64.9375 C 42.851562 -64.9375 50.429688 -61.753906 56.671875 -55.390625 C 62.910156 -49.023438 66.03125 -41.207031 66.03125 -31.9375 C 66.03125 -22.601562 62.960938 -14.753906 56.828125 -8.390625 C 50.691406 -2.023438 43.0625 1.15625 33.9375 1.15625 C 24.613281 1.15625 16.921875 -2 10.859375 -8.3125 C 4.804688 -14.625 1.78125 -22.5 1.78125 -31.9375 Z M 17.46875 -31.9375 C 17.46875 -28.582031 17.984375 -25.523438 19.015625 -22.765625 C 20.046875 -20.003906 21.847656 -17.671875 24.421875 -15.765625 C 27.003906 -13.859375 30.175781 -12.90625 33.9375 -12.90625 C 39.351562 -12.90625 43.4375 -14.757812 46.1875 -18.46875 C 48.945312 -22.1875 50.328125 -26.675781 50.328125 -31.9375 C 50.328125 -37.132812 48.921875 -41.601562 46.109375 -45.34375 C 43.304688 -49.082031 39.25 -50.953125 33.9375 -50.953125 C 28.675781 -50.953125 24.613281 -49.082031 21.75 -45.34375 C 18.894531 -41.601562 17.46875 -37.132812 17.46875 -31.9375 Z M 17.46875 -31.9375 "/></g></g></g><g fill="#ffffff" fill-opacity="1"><g transform="translate(21.728844, 252.730016)"><g><path d="M 4.90625 -9.03125 C 5.445312 -9.03125 5.96875 -8.925781 6.46875 -8.71875 C 6.96875 -8.519531 7.40625 -8.222656 7.78125 -7.828125 C 8.632812 -6.960938 9.0625 -5.859375 9.0625 -4.515625 C 9.0625 -3.171875 8.632812 -2.066406 7.78125 -1.203125 C 7.40625 -0.804688 6.96875 -0.503906 6.46875 -0.296875 C 5.96875 -0.0976562 5.445312 0 4.90625 0 L 1.109375 0 L 1.109375 -9.03125 Z M 4.875 -0.96875 C 5.8125 -0.96875 6.578125 -1.316406 7.171875 -2.015625 C 7.742188 -2.691406 8.03125 -3.523438 8.03125 -4.515625 C 8.03125 -5.503906 7.742188 -6.335938 7.171875 -7.015625 C 6.578125 -7.710938 5.8125 -8.0625 4.875 -8.0625 L 2.125 -8.0625 L 2.125 -0.96875 Z M 4.875 -0.96875 "/></g></g></g><g fill="#ffffff" fill-opacity="1"><g transform="translate(31.332978, 252.730016)"><g><path d="M 2.125 -8.046875 L 2.125 -5.015625 L 7.140625 -5.015625 L 7.140625 -4.03125 L 2.125 -4.03125 L 2.125 -0.984375 L 7.75 -0.984375 L 7.75 0 L 1.109375 0 L 1.109375 -9.03125 L 7.75 -9.03125 L 7.75 -8.046875 Z M 2.125 -8.046875 "/></g></g></g><g fill="#ffffff" fill-opacity="1"><g transform="translate(39.627456, 252.730016)"><g><path d="M 2.140625 -7.640625 C 1.960938 -7.492188 1.84375 -7.328125 1.78125 -7.140625 C 1.726562 -6.960938 1.703125 -6.769531 1.703125 -6.5625 C 1.703125 -6.363281 1.789062 -6.175781 1.96875 -6 C 2.144531 -5.832031 2.378906 -5.6875 2.671875 -5.5625 C 2.960938 -5.445312 3.296875 -5.34375 3.671875 -5.25 C 4.046875 -5.15625 4.425781 -5.0625 4.8125 -4.96875 C 5.195312 -4.875 5.570312 -4.765625 5.9375 -4.640625 C 6.3125 -4.515625 6.644531 -4.359375 6.9375 -4.171875 C 7.582031 -3.765625 7.90625 -3.207031 7.90625 -2.5 C 7.90625 -1.65625 7.585938 -1.007812 6.953125 -0.5625 C 6.328125 -0.113281 5.457031 0.109375 4.34375 0.109375 C 3.070312 0.109375 2.109375 -0.15625 1.453125 -0.6875 C 0.859375 -1.15625 0.519531 -1.828125 0.4375 -2.703125 L 1.5 -2.703125 C 1.539062 -2.078125 1.84375 -1.601562 2.40625 -1.28125 C 2.894531 -1 3.539062 -0.859375 4.34375 -0.859375 C 6.039062 -0.859375 6.890625 -1.390625 6.890625 -2.453125 C 6.890625 -2.816406 6.734375 -3.101562 6.421875 -3.3125 C 6.117188 -3.519531 5.738281 -3.691406 5.28125 -3.828125 C 4.820312 -3.960938 4.328125 -4.085938 3.796875 -4.203125 C 3.265625 -4.328125 2.769531 -4.484375 2.3125 -4.671875 C 1.851562 -4.859375 1.46875 -5.101562 1.15625 -5.40625 C 0.851562 -5.707031 0.703125 -6.117188 0.703125 -6.640625 C 0.703125 -7.378906 0.984375 -7.976562 1.546875 -8.4375 C 2.117188 -8.90625 2.972656 -9.140625 4.109375 -9.140625 C 5.253906 -9.140625 6.140625 -8.875 6.765625 -8.34375 C 7.335938 -7.882812 7.640625 -7.289062 7.671875 -6.5625 L 6.625 -6.5625 C 6.539062 -7.300781 6.0625 -7.796875 5.1875 -8.046875 C 4.875 -8.140625 4.488281 -8.1875 4.03125 -8.1875 C 3.570312 -8.1875 3.1875 -8.132812 2.875 -8.03125 C 2.5625 -7.925781 2.316406 -7.796875 2.140625 -7.640625 Z M 2.140625 -7.640625 "/></g></g></g><g fill="#ffffff" fill-opacity="1"><g transform="translate(48.017433, 252.730016)"><g><path d="M 2.125 0 L 1.109375 0 L 1.109375 -9.03125 L 2.125 -9.03125 Z M 2.125 0 "/></g></g></g><g fill="#ffffff" fill-opacity="1"><g transform="translate(51.250642, 252.730016)"><g><path d="M 8.890625 -9.03125 L 8.890625 0 L 7.703125 0 L 2.125 -7.625 L 2.125 0 L 1.109375 0 L 1.109375 -9.03125 L 2.296875 -9.03125 L 7.875 -1.4375 L 7.875 -9.03125 Z M 8.890625 -9.03125 "/></g></g></g><g fill="#ffffff" fill-opacity="1"><g transform="translate(61.250402, 252.730016)"><g><path d="M 1.75 -7.78125 C 2.125 -8.207031 2.582031 -8.539062 3.125 -8.78125 C 3.675781 -9.019531 4.242188 -9.140625 4.828125 -9.140625 C 5.410156 -9.140625 5.914062 -9.070312 6.34375 -8.9375 C 6.769531 -8.8125 7.15625 -8.644531 7.5 -8.4375 C 8.21875 -7.96875 8.742188 -7.347656 9.078125 -6.578125 L 7.96875 -6.578125 C 7.695312 -7.066406 7.316406 -7.445312 6.828125 -7.71875 C 6.335938 -8 5.785156 -8.140625 5.171875 -8.140625 C 4.554688 -8.140625 4.03125 -8.046875 3.59375 -7.859375 C 3.15625 -7.671875 2.785156 -7.414062 2.484375 -7.09375 C 1.867188 -6.414062 1.5625 -5.554688 1.5625 -4.515625 C 1.5625 -3.460938 1.863281 -2.601562 2.46875 -1.9375 C 3.113281 -1.238281 3.96875 -0.890625 5.03125 -0.890625 C 5.882812 -0.890625 6.625 -1.148438 7.25 -1.671875 C 7.894531 -2.234375 8.21875 -2.96875 8.21875 -3.875 L 4.921875 -3.875 L 4.921875 -4.796875 L 9.171875 -4.796875 L 9.171875 0 L 8.21875 0 L 8.21875 -1.59375 C 7.707031 -0.8125 6.988281 -0.289062 6.0625 -0.03125 C 5.726562 0.0625 5.285156 0.109375 4.734375 0.109375 C 4.191406 0.109375 3.644531 -0.0078125 3.09375 -0.25 C 2.550781 -0.488281 2.085938 -0.816406 1.703125 -1.234375 C 0.921875 -2.097656 0.53125 -3.191406 0.53125 -4.515625 C 0.53125 -5.828125 0.9375 -6.914062 1.75 -7.78125 Z M 1.75 -7.78125 "/></g></g></g><g fill="#ffffff" fill-opacity="1"><g transform="translate(71.11374, 252.730016)"><g/></g></g><g fill="#ffffff" fill-opacity="1"><g transform="translate(74.019536, 252.730016)"><g><path d="M 1.5625 -8.421875 C 1.820312 -8.640625 2.132812 -8.8125 2.5 -8.9375 C 2.875 -9.070312 3.300781 -9.140625 3.78125 -9.140625 C 4.257812 -9.140625 4.664062 -9.082031 5 -8.96875 C 5.34375 -8.863281 5.628906 -8.71875 5.859375 -8.53125 C 6.285156 -8.207031 6.554688 -7.78125 6.671875 -7.25 L 5.59375 -7.25 C 5.519531 -7.46875 5.332031 -7.679688 5.03125 -7.890625 C 4.726562 -8.109375 4.359375 -8.21875 3.921875 -8.21875 C 3.492188 -8.21875 3.15625 -8.175781 2.90625 -8.09375 C 2.65625 -8.007812 2.453125 -7.894531 2.296875 -7.75 C 1.984375 -7.476562 1.828125 -7.113281 1.828125 -6.65625 C 1.828125 -6.164062 2.003906 -5.785156 2.359375 -5.515625 C 2.679688 -5.273438 3.09375 -5.15625 3.59375 -5.15625 L 5.796875 -5.15625 L 5.796875 -5.75 L 6.75 -5.75 L 6.75 -5.15625 L 7.640625 -5.15625 L 7.640625 -4.25 L 6.75 -4.25 L 6.75 -2.515625 C 6.75 -1.734375 6.476562 -1.101562 5.9375 -0.625 C 5.382812 -0.132812 4.628906 0.109375 3.671875 0.109375 C 2.804688 0.109375 2.066406 -0.140625 1.453125 -0.640625 C 0.816406 -1.148438 0.5 -1.800781 0.5 -2.59375 C 0.5 -3.082031 0.644531 -3.515625 0.9375 -3.890625 C 1.226562 -4.273438 1.640625 -4.570312 2.171875 -4.78125 C 1.835938 -4.875 1.53125 -5.097656 1.25 -5.453125 C 0.957031 -5.859375 0.8125 -6.25 0.8125 -6.625 C 0.8125 -7.007812 0.875 -7.351562 1 -7.65625 C 1.125 -7.957031 1.3125 -8.210938 1.5625 -8.421875 Z M 3.484375 -4.25 C 2.921875 -4.25 2.453125 -4.078125 2.078125 -3.734375 C 1.710938 -3.429688 1.53125 -3.039062 1.53125 -2.5625 C 1.53125 -2.09375 1.726562 -1.6875 2.125 -1.34375 C 2.53125 -0.988281 3.046875 -0.8125 3.671875 -0.8125 C 4.335938 -0.8125 4.867188 -0.976562 5.265625 -1.3125 C 5.617188 -1.601562 5.796875 -1.972656 5.796875 -2.421875 L 5.796875 -4.25 Z M 3.484375 -4.25 "/></g></g></g><g fill="#ffffff" fill-opacity="1"><g transform="translate(81.93203, 252.730016)"><g/></g></g><g fill="#ffffff" fill-opacity="1"><g transform="translate(84.837826, 252.730016)"><g><path d="M 2.125 0 L 1.109375 0 L 1.109375 -9.03125 L 5.171875 -9.03125 C 6.128906 -9.03125 6.890625 -8.765625 7.453125 -8.234375 C 8.003906 -7.710938 8.28125 -7.007812 8.28125 -6.125 C 8.28125 -5.226562 8 -4.519531 7.4375 -4 C 6.882812 -3.476562 6.128906 -3.21875 5.171875 -3.21875 L 2.125 -3.21875 Z M 2.125 -8.0625 L 2.125 -4.171875 L 5.109375 -4.171875 C 5.816406 -4.171875 6.347656 -4.34375 6.703125 -4.6875 C 7.066406 -5.03125 7.25 -5.503906 7.25 -6.109375 C 7.25 -6.722656 7.066406 -7.203125 6.703125 -7.546875 C 6.347656 -7.890625 5.816406 -8.0625 5.109375 -8.0625 Z M 2.125 -8.0625 "/></g></g></g><g fill="#ffffff" fill-opacity="1"><g transform="translate(93.405151, 252.730016)"><g><path d="M 2.125 0 L 1.109375 0 L 1.109375 -9.03125 L 5.421875 -9.03125 C 6.347656 -9.03125 7.085938 -8.773438 7.640625 -8.265625 C 8.191406 -7.765625 8.46875 -7.078125 8.46875 -6.203125 C 8.46875 -5.078125 8 -4.3125 7.0625 -3.90625 C 6.800781 -3.78125 6.539062 -3.691406 6.28125 -3.640625 L 8.65625 0 L 7.453125 0 L 5.265625 -3.46875 L 2.125 -3.46875 Z M 2.125 -4.4375 L 5.25 -4.4375 C 6.21875 -4.4375 6.882812 -4.734375 7.25 -5.328125 C 7.382812 -5.554688 7.453125 -5.847656 7.453125 -6.203125 C 7.453125 -6.773438 7.253906 -7.226562 6.859375 -7.5625 C 6.472656 -7.894531 5.957031 -8.0625 5.3125 -8.0625 L 2.125 -8.0625 Z M 2.125 -4.4375 "/></g></g></g><g fill="#ffffff" fill-opacity="1"><g transform="translate(102.531808, 252.730016)"><g><path d="M 5.109375 -9.140625 C 6.460938 -9.140625 7.570312 -8.6875 8.4375 -7.78125 C 9.28125 -6.914062 9.703125 -5.828125 9.703125 -4.515625 C 9.703125 -3.203125 9.28125 -2.109375 8.4375 -1.234375 C 7.570312 -0.335938 6.460938 0.109375 5.109375 0.109375 C 3.765625 0.109375 2.660156 -0.335938 1.796875 -1.234375 C 0.953125 -2.109375 0.53125 -3.203125 0.53125 -4.515625 C 0.53125 -5.828125 0.953125 -6.914062 1.796875 -7.78125 C 2.660156 -8.6875 3.765625 -9.140625 5.109375 -9.140625 Z M 5.109375 -0.890625 C 6.179688 -0.890625 7.050781 -1.238281 7.71875 -1.9375 C 8.351562 -2.613281 8.671875 -3.472656 8.671875 -4.515625 C 8.671875 -5.554688 8.351562 -6.414062 7.71875 -7.09375 C 7.050781 -7.789062 6.179688 -8.140625 5.109375 -8.140625 C 4.035156 -8.140625 3.171875 -7.789062 2.515625 -7.09375 C 1.878906 -6.414062 1.5625 -5.554688 1.5625 -4.515625 C 1.5625 -3.472656 1.878906 -2.613281 2.515625 -1.9375 C 3.171875 -1.238281 4.035156 -0.890625 5.109375 -0.890625 Z M 5.109375 -0.890625 "/></g></g></g><g fill="#ffffff" fill-opacity="1"><g transform="translate(112.763482, 252.730016)"><g><path d="M 1.75 -7.78125 C 2.125 -8.207031 2.582031 -8.539062 3.125 -8.78125 C 3.675781 -9.019531 4.242188 -9.140625 4.828125 -9.140625 C 5.410156 -9.140625 5.914062 -9.070312 6.34375 -8.9375 C 6.769531 -8.8125 7.15625 -8.644531 7.5 -8.4375 C 8.21875 -7.96875 8.742188 -7.347656 9.078125 -6.578125 L 7.96875 -6.578125 C 7.695312 -7.066406 7.316406 -7.445312 6.828125 -7.71875 C 6.335938 -8 5.785156 -8.140625 5.171875 -8.140625 C 4.554688 -8.140625 4.03125 -8.046875 3.59375 -7.859375 C 3.15625 -7.671875 2.785156 -7.414062 2.484375 -7.09375 C 1.867188 -6.414062 1.5625 -5.554688 1.5625 -4.515625 C 1.5625 -3.460938 1.863281 -2.601562 2.46875 -1.9375 C 3.113281 -1.238281 3.96875 -0.890625 5.03125 -0.890625 C 5.882812 -0.890625 6.625 -1.148438 7.25 -1.671875 C 7.894531 -2.234375 8.21875 -2.96875 8.21875 -3.875 L 4.921875 -3.875 L 4.921875 -4.796875 L 9.171875 -4.796875 L 9.171875 0 L 8.21875 0 L 8.21875 -1.59375 C 7.707031 -0.8125 6.988281 -0.289062 6.0625 -0.03125 C 5.726562 0.0625 5.285156 0.109375 4.734375 0.109375 C 4.191406 0.109375 3.644531 -0.0078125 3.09375 -0.25 C 2.550781 -0.488281 2.085938 -0.816406 1.703125 -1.234375 C 0.921875 -2.097656 0.53125 -3.191406 0.53125 -4.515625 C 0.53125 -5.828125 0.9375 -6.914062 1.75 -7.78125 Z M 1.75 -7.78125 "/></g></g></g><g fill="#ffffff" fill-opacity="1"><g transform="translate(122.62682, 252.730016)"><g><path d="M 2.125 0 L 1.109375 0 L 1.109375 -9.03125 L 5.421875 -9.03125 C 6.347656 -9.03125 7.085938 -8.773438 7.640625 -8.265625 C 8.191406 -7.765625 8.46875 -7.078125 8.46875 -6.203125 C 8.46875 -5.078125 8 -4.3125 7.0625 -3.90625 C 6.800781 -3.78125 6.539062 -3.691406 6.28125 -3.640625 L 8.65625 0 L 7.453125 0 L 5.265625 -3.46875 L 2.125 -3.46875 Z M 2.125 -4.4375 L 5.25 -4.4375 C 6.21875 -4.4375 6.882812 -4.734375 7.25 -5.328125 C 7.382812 -5.554688 7.453125 -5.847656 7.453125 -6.203125 C 7.453125 -6.773438 7.253906 -7.226562 6.859375 -7.5625 C 6.472656 -7.894531 5.957031 -8.0625 5.3125 -8.0625 L 2.125 -8.0625 Z M 2.125 -4.4375 "/></g></g></g><g fill="#ffffff" fill-opacity="1"><g transform="translate(131.753477, 252.730016)"><g><path d="M 8.984375 0 L 7.859375 0 L 6.75 -2.625 L 2.28125 -2.625 L 1.171875 0 L 0.046875 0 L 3.875 -9.03125 L 5.15625 -9.03125 Z M 6.359375 -3.5625 L 4.515625 -7.96875 L 2.671875 -3.5625 Z M 6.359375 -3.5625 "/></g></g></g><g fill="#ffffff" fill-opacity="1"><g transform="translate(140.784637, 252.730016)"><g><path d="M 9.890625 -9.03125 L 9.890625 0 L 8.859375 0 L 8.859375 -7.46875 L 5.53125 -3.171875 L 2.125 -7.46875 L 2.125 0 L 1.109375 0 L 1.109375 -9.03125 L 2.296875 -9.03125 L 5.53125 -4.75 L 8.703125 -9.03125 Z M 9.890625 -9.03125 "/></g></g></g><g fill="#ffffff" fill-opacity="1"><g transform="translate(151.780281, 252.730016)"><g><path d="M 9.890625 -9.03125 L 9.890625 0 L 8.859375 0 L 8.859375 -7.46875 L 5.53125 -3.171875 L 2.125 -7.46875 L 2.125 0 L 1.109375 0 L 1.109375 -9.03125 L 2.296875 -9.03125 L 5.53125 -4.75 L 8.703125 -9.03125 Z M 9.890625 -9.03125 "/></g></g></g><g fill="#ffffff" fill-opacity="1"><g transform="translate(162.775926, 252.730016)"><g><path d="M 2.125 0 L 1.109375 0 L 1.109375 -9.03125 L 2.125 -9.03125 Z M 2.125 0 "/></g></g></g><g fill="#ffffff" fill-opacity="1"><g transform="translate(166.009127, 252.730016)"><g><path d="M 8.890625 -9.03125 L 8.890625 0 L 7.703125 0 L 2.125 -7.625 L 2.125 0 L 1.109375 0 L 1.109375 -9.03125 L 2.296875 -9.03125 L 7.875 -1.4375 L 7.875 -9.03125 Z M 8.890625 -9.03125 "/></g></g></g><g fill="#ffffff" fill-opacity="1"><g transform="translate(176.008888, 252.730016)"><g><path d="M 1.75 -7.78125 C 2.125 -8.207031 2.582031 -8.539062 3.125 -8.78125 C 3.675781 -9.019531 4.242188 -9.140625 4.828125 -9.140625 C 5.410156 -9.140625 5.914062 -9.070312 6.34375 -8.9375 C 6.769531 -8.8125 7.15625 -8.644531 7.5 -8.4375 C 8.21875 -7.96875 8.742188 -7.347656 9.078125 -6.578125 L 7.96875 -6.578125 C 7.695312 -7.066406 7.316406 -7.445312 6.828125 -7.71875 C 6.335938 -8 5.785156 -8.140625 5.171875 -8.140625 C 4.554688 -8.140625 4.03125 -8.046875 3.59375 -7.859375 C 3.15625 -7.671875 2.785156 -7.414062 2.484375 -7.09375 C 1.867188 -6.414062 1.5625 -5.554688 1.5625 -4.515625 C 1.5625 -3.460938 1.863281 -2.601562 2.46875 -1.9375 C 3.113281 -1.238281 3.96875 -0.890625 5.03125 -0.890625 C 5.882812 -0.890625 6.625 -1.148438 7.25 -1.671875 C 7.894531 -2.234375 8.21875 -2.96875 8.21875 -3.875 L 4.921875 -3.875 L 4.921875 -4.796875 L 9.171875 -4.796875 L 9.171875 0 L 8.21875 0 L 8.21875 -1.59375 C 7.707031 -0.8125 6.988281 -0.289062 6.0625 -0.03125 C 5.726562 0.0625 5.285156 0.109375 4.734375 0.109375 C 4.191406 0.109375 3.644531 -0.0078125 3.09375 -0.25 C 2.550781 -0.488281 2.085938 -0.816406 1.703125 -1.234375 C 0.921875 -2.097656 0.53125 -3.191406 0.53125 -4.515625 C 0.53125 -5.828125 0.9375 -6.914062 1.75 -7.78125 Z M 1.75 -7.78125 "/></g></g></g></svg>